<svg width="256" height="256" viewBox="0 0 256 256" fill="none" xmlns="http://www.w3.org/2000/svg">
    <defs>
        <linearGradient id="databaseGradient" x1="64" y1="36" x2="192" y2="220" gradientUnits="userSpaceOnUse">
            <stop offset="0" stop-color="#00D9FF"/>
            <stop offset="1" stop-color="#168BFF"/>
        </linearGradient>
    </defs>

    <ellipse cx="128" cy="62" rx="72" ry="32" fill="url(#databaseGradient)"/>
    <path d="M56 62V112C56 129.7 88.2 144 128 144C167.8 144 200 129.7 200 112V62C200 79.7 167.8 94 128 94C88.2 94 56 79.7 56 62Z" fill="url(#databaseGradient)" opacity="0.9"/>
    <path d="M56 116V166C56 183.7 88.2 198 128 198C167.8 198 200 183.7 200 166V116C200 133.7 167.8 148 128 148C88.2 148 56 133.7 56 116Z" fill="url(#databaseGradient)" opacity="0.75"/>
    <path d="M56 168V194C56 211.7 88.2 226 128 226C167.8 226 200 211.7 200 194V168C200 185.7 167.8 200 128 200C88.2 200 56 185.7 56 168Z" fill="url(#databaseGradient)" opacity="0.6"/>

    <ellipse cx="128" cy="62" rx="72" ry="32" stroke="#B7F4FF" stroke-width="6" opacity="0.45"/>
</svg>