<?xml version="1.0" encoding="UTF-8"?>
<svg version="1.1" xmlns="http://www.w3.org/2000/svg" width="1254" height="1254">
<path d="M0 0 C413.82 0 827.64 0 1254 0 C1254 413.82 1254 827.64 1254 1254 C840.18 1254 426.36 1254 0 1254 C0 840.18 0 426.36 0 0 Z " fill="#000000" transform="translate(0,0)"/>
<path d="M0 0 C24.6864532 -0.16344199 49.37282544 -0.28692217 74.0597105 -0.3626852 C85.52200583 -0.39879667 96.98396521 -0.44803866 108.44604492 -0.52807617 C118.43513087 -0.59779487 128.42397356 -0.64299535 138.41329604 -0.65861946 C143.70387844 -0.66775423 148.99376483 -0.68925649 154.28412437 -0.7401104 C159.26240493 -0.78757732 164.23970198 -0.80229037 169.21818733 -0.79175377 C171.04639402 -0.79368166 172.87463314 -0.80763469 174.70264435 -0.83443832 C177.19817202 -0.86923875 179.68998019 -0.86091415 182.18559265 -0.84178162 C183.2726666 -0.87236645 183.2726666 -0.87236645 184.38170165 -0.90356916 C187.32079485 -0.842594 189.41590383 -0.57996035 191.54387248 1.53294075 C192.82932355 3.30679455 193.94239958 5.08312383 195 7 C195.45536133 7.76723389 195.91072266 8.53446777 196.37988281 9.32495117 C196.73405273 9.99502197 197.08822266 10.66509277 197.453125 11.35546875 C200.04165871 16.1249327 202.86998756 20.71470446 205.75 25.3125 C210.91875065 33.61936739 216.04522832 41.95090858 221.125 50.3125 C221.47541351 50.88925476 221.82582703 51.46600952 222.18685913 52.0602417 C229.0057742 63.29338339 235.72115014 74.58754748 242.40478516 85.90161133 C246.60276787 93.00245743 250.85989008 100.05920575 255.19750977 107.07592773 C257.64723502 111.04997073 260.04552618 115.05353435 262.4375 119.0625 C266.97983641 126.65694957 271.5647301 134.2248058 276.16677856 141.78317261 C282.85224053 152.76488439 289.45072752 163.79279984 295.98608398 174.86474609 C301.04413982 183.42053206 306.18797035 191.92207151 311.36154175 200.40823364 C318.13293764 211.52003126 324.78710105 222.69957523 331.40551758 233.90307617 C332.156983 235.17371316 332.9085277 236.44430326 333.66015625 237.71484375 C334.02111893 238.32615646 334.3820816 238.93746918 334.75398254 239.56730652 C336.56867938 242.62979768 338.40924959 245.67195591 340.30029297 248.68798828 C340.66940292 249.27810196 341.03851288 249.86821564 341.41880798 250.47621155 C342.42969895 252.08569612 343.44787421 253.69059903 344.46655273 255.29516602 C345.78534208 257.6213668 346.55203263 259.39042464 347 262 C347.66 262 348.32 262 349 262 C349.09861328 261.45859375 349.19722656 260.9171875 349.29882812 260.359375 C350.1937423 257.34807604 351.62267535 254.95765732 353.21875 252.25 C353.54818604 251.6884874 353.87762207 251.12697479 354.21704102 250.54844666 C355.30616122 248.69584445 356.40282065 246.847839 357.5 245 C358.27039197 243.69486658 359.04057091 242.3896074 359.81054688 241.08422852 C367.05572475 228.82387112 374.44593148 216.65196844 381.86621094 204.49707031 C385.46112499 198.60747765 389.04346513 192.71023523 392.625 186.8125 C393.15676849 185.93686905 393.15676849 185.93686905 393.69927979 185.04354858 C403.53695025 168.84080494 413.28699149 152.5866602 422.95019531 136.27929688 C431.83959101 121.27793702 440.8227152 106.3380317 449.8984375 91.44873047 C453.47949313 85.57335229 457.05261931 79.69315542 460.625 73.8125 C461.15404938 72.94194473 461.15404938 72.94194473 461.69378662 72.05380249 C466.7440938 63.74217069 471.75739172 55.40894121 476.75 47.0625 C482.93001468 36.73478072 489.23063302 26.48674524 495.59130859 16.26953125 C498.28624763 11.92773692 500.94740102 7.5651832 503.609375 3.203125 C505 1 505 1 506 0 C508.32767014 -0.0976134 510.62562019 -0.12997765 512.95375061 -0.12025452 C513.68964446 -0.12110894 514.42553831 -0.12196337 515.18373197 -0.12284368 C517.66816646 -0.12450067 520.15253455 -0.11897356 522.63696289 -0.11352539 C524.41048684 -0.11324354 526.18401091 -0.11340121 527.95753479 -0.1139679 C532.78791017 -0.11425595 537.61826094 -0.1083579 542.44863057 -0.10139394 C547.49085317 -0.09516176 552.53307627 -0.09455671 557.57530212 -0.09336853 C567.13050227 -0.09025481 576.68569103 -0.08204088 586.24088615 -0.07201904 C597.11615433 -0.06085916 607.99142305 -0.05534777 618.86669552 -0.05032361 C641.24447 -0.0398583 663.62223436 -0.02225807 686 0 C685.06216598 1.74398627 684.12130533 3.48634515 683.17919922 5.22802734 C682.65558807 6.19847992 682.13197693 7.1689325 681.59249878 8.16879272 C679.76343416 11.4205761 677.7324458 14.47373675 675.62988281 17.55175781 C672.5870357 22.12240952 669.79940246 26.85383972 666.96890259 31.55776978 C661.66841503 40.36312987 656.33456883 49.14375098 650.8125 57.8125 C645.86477323 65.5825395 641.05978393 73.43338744 636.28271484 81.30932617 C629.72701879 92.11314934 623.06177178 102.84817521 616.39550781 113.58398438 C609.55245181 124.6077524 602.75226941 135.65584615 596.01977539 146.74755859 C593.06006887 151.62273372 590.08643293 156.48873375 587.09375 161.34375 C583.32560706 167.46015593 579.59609548 173.59935077 575.87542725 179.74472046 C570.41989981 188.7537808 564.9393784 197.74509147 559.375 206.6875 C552.10831619 218.37315949 545.05612607 230.18643139 538 242 C536.54282755 244.4382 535.0843294 246.87558894 533.625 249.3125 C533.29290527 249.86752197 532.96081055 250.42254395 532.61865234 250.99438477 C530.16708059 255.08164073 527.68822104 259.15179011 525.203125 263.21875 C516.18690516 277.98328382 507.39901749 292.85535245 498.79980469 307.86816406 C495.86928955 312.96754662 492.9043859 318.04671826 489.9375 323.125 C489.36217529 324.11048828 488.78685059 325.09597656 488.1940918 326.11132812 C485.32381227 331.02650532 482.45003898 335.93962546 479.57421875 340.8515625 C472.62923479 352.72317833 465.75509226 364.63284941 458.95922852 376.59033203 C455.84623105 382.06162122 452.71091797 387.51543717 449.47265625 392.9140625 C440.45076823 407.98957048 432.60265382 423.51975585 424.84274292 439.26698303 C422.32608783 444.36549568 419.73882631 449.42071163 417.0625 454.4375 C412.32420744 463.3277865 407.72477148 472.2875344 403.125 481.25 C395.38046467 496.33374436 387.60850351 511.4026489 379.6796875 526.390625 C374.08423922 536.97119571 368.59238676 547.60285063 363.125 558.25 C357.94062731 568.34589768 352.75275292 578.43943323 347.5 588.5 C347.08121582 589.30211914 346.66243164 590.10423828 346.23095703 590.93066406 C344.09666675 595.01099775 341.95467349 599.08715167 339.80273438 603.15820312 C333.60570868 614.89046034 327.52879269 626.6805397 321.5 638.5 C316.37855341 648.54060643 311.24217238 658.56942553 305.96875 668.53125 C300.84932876 678.28712822 295.92718243 688.14563513 291 698 C235.56 698 180.12 698 123 698 C124.59305873 694.01735317 126.21978865 690.7394637 128.38671875 687.08203125 C128.7202536 686.51641983 129.05378845 685.95080841 129.39743042 685.36805725 C130.11592742 684.15031149 130.83596832 682.9334756 131.55740356 681.71746826 C133.49583404 678.44991655 135.42299893 675.17572532 137.3515625 671.90234375 C137.74455032 671.23599915 138.13753815 670.56965454 138.54243469 669.88311768 C142.26064799 663.57265968 145.91587547 657.22710573 149.5625 650.875 C154.64005769 642.04197584 159.79173079 633.25655986 165 624.5 C172.7885105 611.40259796 180.41017027 598.21324867 188 585 C195.10954915 572.63263186 202.2218689 560.26913688 209.5 548 C225.19363584 521.53721639 240.32367958 494.74709946 255.20458984 467.8203125 C256.01732833 466.3498609 256.83064763 464.87973019 257.64453125 463.40991211 C258.4597301 461.93754005 259.27355057 460.46440392 260.0859375 458.99047852 C262.4412153 454.7363973 264.85750517 450.52581685 267.33203125 446.33984375 C268.16855225 444.91345581 268.16855225 444.91345581 269.02197266 443.45825195 C270.11412265 441.60038026 271.21634628 439.74838579 272.32958984 437.90307617 C272.82281738 437.06107666 273.31604492 436.21907715 273.82421875 435.3515625 C274.26854248 434.60729004 274.71286621 433.86301758 275.1706543 433.09619141 C276.210132 430.46888627 276.05534151 429.60493766 275 427 C273.92162943 425.02088745 272.78132011 423.07513941 271.60546875 421.15234375 C271.26213501 420.58805664 270.91880127 420.02376953 270.56506348 419.44238281 C269.44448582 417.60413748 268.31624808 415.77073775 267.1875 413.9375 C266.40767595 412.66301494 265.62813688 411.38835546 264.84887695 410.11352539 C259.1203422 400.75747664 253.30319496 391.45884021 247.40625 382.20800781 C244.99075808 378.41535001 242.58908039 374.61397665 240.1875 370.8125 C239.69693115 370.03656494 239.2063623 369.26062988 238.70092773 368.46118164 C235.32496115 363.11558436 231.97315399 357.75528843 228.62915039 352.38964844 C217.94684594 335.25243974 207.06656499 318.24397597 196.07226562 301.30541992 C192.42917004 295.68446988 188.83823536 290.03108243 185.25 284.375 C179.81329314 275.80883529 174.29782951 267.2973795 168.74047852 258.80908203 C164.17151174 251.82152667 159.67044555 244.79296959 155.1875 237.75 C149.11070082 228.21066483 142.8844364 218.78203835 136.58578491 209.38879395 C131.46937865 201.75533582 126.46957472 194.0644582 121.60742188 186.26660156 C116.92150417 178.79144713 112.00435122 171.47330948 107.09106445 164.14685059 C100.75953209 154.70021497 94.58318018 145.16656683 88.47753906 135.57177734 C84.67397225 129.5992423 80.81516426 123.67466502 76.85644531 117.80419922 C72.88836733 111.89133776 69.07583062 105.88050689 65.25 99.875 C58.51083289 89.30445638 51.62602122 78.84214991 44.63623047 68.43603516 C42.02244771 64.54461105 39.4157198 60.64849686 36.8125 56.75 C36.32088379 56.01378418 35.82926758 55.27756836 35.32275391 54.51904297 C31.5931036 48.92022349 27.93398881 43.27817687 24.29541016 37.61987305 C19.93047619 30.85023452 15.45100121 24.15816839 10.94580078 17.48120117 C10.39005371 16.65338135 9.83430664 15.82556152 9.26171875 14.97265625 C8.53408325 13.89383179 8.53408325 13.89383179 7.79174805 12.79321289 C6.10549102 10.1644533 4.49179158 7.50508365 2.88801575 4.82542419 C2.34730847 3.92250358 1.8066012 3.01958296 1.24950886 2.08930111 C0.83717093 1.39983174 0.42483301 0.71036238 0 0 Z " fill="#B236F1" transform="translate(128,231)"/>
<path d="M0 0 C4.94379089 0.17125418 9.88675352 0.24671339 14.83287239 0.31607628 C78.72227929 1.21227604 133.28766527 14.85455253 179.60333252 61.75415039 C182.76886535 65.30352777 185.69946867 68.98988243 188.60333252 72.75415039 C189.25430908 73.53918945 189.90528564 74.32422852 190.57598877 75.13305664 C216.02747933 105.84688322 235.10426102 148.08521214 236.46270752 188.30493164 C236.44184047 190.76050632 236.44184047 190.76050632 237.60333252 192.75415039 C237.72746317 195.43988618 237.79137322 198.09850929 237.80645752 200.78540039 C237.81342651 201.6002742 237.82039551 202.41514801 237.82757568 203.25471497 C237.84512082 205.9212449 237.85131209 208.58756487 237.85333252 211.25415039 C237.8543396 212.16063324 237.85534668 213.06711609 237.85638428 214.00106812 C237.84501711 229.10686742 237.10670158 243.82744504 234.60333252 258.75415039 C234.45879639 259.62217285 234.31426025 260.49019531 234.16534424 261.38452148 C232.22948988 272.52586713 229.14745288 283.15920809 225.31182861 293.7878418 C224.70104053 295.48297868 224.11289042 297.18624133 223.52911377 298.89086914 C204.44958462 352.01565476 165.688701 398.04188331 116.60333252 425.75415039 C115.62590088 426.31465088 115.62590088 426.31465088 114.62872314 426.88647461 C86.77739968 442.75415039 86.77739968 442.75415039 76.60333252 442.75415039 C83.28511258 453.23862031 90.13111335 463.60630687 97.04083252 473.94165039 C98.099059 475.52644915 99.15716275 477.11132987 100.21514893 478.69628906 C102.33766607 481.87576106 104.46074098 485.05485937 106.58428955 488.23364258 C110.51010116 494.11091198 114.43023201 499.99196359 118.349823 505.87338257 C120.17621503 508.61378554 122.00307831 511.35387425 123.82989502 514.09399414 C132.39630127 526.94360352 132.39630127 526.94360352 140.96270752 539.79321289 C141.85566528 541.13258911 141.85566528 541.13258911 142.7666626 542.49902344 C143.98800435 544.33111723 145.20919653 546.16331075 146.43023682 547.99560547 C149.03788378 551.90831782 151.64621152 555.8205279 154.26348877 559.72680664 C158.84899021 566.57564099 163.37136829 573.46206121 167.85333252 580.37915039 C174.04207202 589.92655714 180.33913568 599.3985211 186.66534424 608.85522461 C190.23361246 614.19279287 193.7928344 619.53639735 197.35333252 624.87915039 C201.62447215 631.28826501 205.89583449 637.69721589 210.17599487 644.10031128 C225.13781677 666.483332 225.13781677 666.483332 231.88165283 676.99707031 C234.04897457 680.37210694 236.24490088 683.72321781 238.49005127 687.04711914 C238.95991455 687.74353516 239.42977783 688.43995117 239.91387939 689.1574707 C240.80818668 690.47863529 241.70640926 691.79716109 242.60919189 693.11254883 C245.60333252 697.53515425 245.60333252 697.53515425 245.60333252 699.75415039 C224.85455853 700.24585588 204.10675131 700.61556981 183.35332298 700.842206 C173.71559702 700.95026352 164.08150068 701.0974055 154.44610596 701.33837891 C146.04233783 701.54844918 137.64119793 701.68333921 129.23487723 701.73000878 C124.78663765 701.75727764 120.34591198 701.82074904 115.90009689 701.97448158 C88.92945401 702.87149903 88.92945401 702.87149903 81.77991486 697.7196312 C77.19982859 692.85982923 74.33365698 687.43997965 71.75947952 681.32466698 C70.0409133 677.503697 67.69488955 674.24551506 65.22833252 670.87915039 C64.33978927 669.59876239 63.45404306 668.31642532 62.57208252 667.03149414 C58.27528969 660.83408266 53.96228917 654.64790857 49.65118408 648.46044922 C45.39691481 642.34934141 41.1729834 636.21880502 36.97833252 630.06665039 C30.27230382 620.23555236 23.4436586 610.49208841 16.60333252 600.75415039 C9.22249657 590.2467386 1.87164431 579.72267249 -5.35955811 569.11157227 C-9.68321234 562.77473283 -14.06694381 556.48109448 -18.45916748 550.19165039 C-23.78651919 542.55727753 -29.02776557 534.87509909 -34.16815186 527.11376953 C-38.71413496 520.25370737 -43.37179109 513.47399854 -48.05096436 506.7043457 C-49.38362001 504.7730588 -50.71133841 502.83848083 -52.03729248 500.90258789 C-55.87786224 495.29769905 -59.7244433 489.69847702 -63.63885498 484.14477539 C-70.88667536 473.85928849 -77.97091661 463.48410594 -84.89154053 452.97485352 C-85.52229492 452.02030273 -86.15304932 451.06575195 -86.80291748 450.08227539 C-87.35270264 449.24599609 -87.90248779 448.4097168 -88.46893311 447.5480957 C-90.21333399 444.87057941 -90.21333399 444.87057941 -91.87347603 443.18277359 C-97.24682924 437.13979239 -97.22021017 431.74641513 -97.07781982 423.91235352 C-97.07913406 422.00865494 -97.07913406 422.00865494 -97.08047485 420.0664978 C-97.08218732 416.60788549 -97.04706285 413.15053699 -97.00503111 409.69221687 C-96.96736957 406.07014605 -96.9639867 402.44804208 -96.95687866 398.82580566 C-96.93827472 391.97634639 -96.88909915 385.12746584 -96.82878172 378.27826071 C-96.7615769 370.47661278 -96.72869267 362.67493633 -96.69860911 354.87307072 C-96.63599519 338.83309253 -96.53054823 322.79369546 -96.39666748 306.75415039 C-95.74566291 306.75084024 -95.09465834 306.7475301 -94.42392635 306.74411964 C-78.52097845 306.66259672 -62.6181325 306.57041084 -46.71531582 306.46662331 C-39.02456552 306.41668293 -31.33382489 306.37023934 -23.64300537 306.33227539 C-16.93302974 306.299144 -10.22313358 306.25919937 -3.51324612 306.21136034 C0.03353431 306.18630342 3.58026345 306.16446316 7.12710762 306.15080643 C32.42933722 307.08029399 32.42933722 307.08029399 56.16583252 299.87915039 C56.8110083 299.54012695 57.45618408 299.20110352 58.12091064 298.85180664 C79.05195083 287.67441868 91.11980495 269.62092798 98.04376221 247.36035156 C104.35491087 226.1945895 102.40827167 201.32160052 92.29083252 181.81665039 C88.93346868 175.68435057 85.31810498 169.94677141 80.60333252 164.75415039 C79.98973877 164.07223633 79.37614502 163.39032227 78.74395752 162.68774414 C66.71796421 150.01234719 50.40485916 141.01621846 32.73340273 140.39550459 C28.97259311 140.32382327 25.21334297 140.31769405 21.45196533 140.32177734 C19.7556284 140.31274313 18.05929796 140.30241188 16.36297607 140.29089355 C11.79356685 140.26349218 7.22428205 140.25406214 2.65480137 140.24803948 C-2.13382768 140.23861159 -6.92236539 140.21240486 -11.7109375 140.18803406 C-20.76284085 140.14448627 -29.81472634 140.11586748 -38.86670232 140.09271067 C-49.17880832 140.06559594 -59.49082189 140.02168845 -69.80286169 139.97642195 C-91.00074712 139.88374367 -112.19866022 139.81198619 -133.39666748 139.75415039 C-132.09526388 136.42378802 -130.71532647 133.44173502 -128.81463623 130.41040039 C-128.30158936 129.58733398 -127.78854248 128.76426758 -127.25994873 127.91625977 C-126.70694092 127.03776367 -126.15393311 126.15926758 -125.58416748 125.25415039 C-124.40046862 123.35838268 -123.21687785 121.46254748 -122.03338623 119.56665039 C-121.42801025 118.59985352 -120.82263428 117.63305664 -120.19891357 116.63696289 C-117.41604259 112.18557566 -114.65685789 107.71962238 -111.89666748 103.25415039 C-110.81346322 101.50407049 -109.73012949 99.75407073 -108.64666748 98.00415039 C-108.11041748 97.13790039 -107.57416748 96.27165039 -107.02166748 95.37915039 C-102.14666748 87.50415039 -102.14666748 87.50415039 -100.5223999 84.88037109 C-99.43658036 83.12632982 -98.35080578 81.37226071 -97.26507568 79.61816406 C-94.59514519 75.30476879 -91.92449392 70.99182363 -89.25213623 66.67993164 C-83.3082209 57.08763133 -77.37696551 47.48758729 -71.45916748 37.87915039 C-70.8638623 36.91340088 -70.26855713 35.94765137 -69.6552124 34.95263672 C-68.74026001 33.46606567 -68.74026001 33.46606567 -67.80682373 31.94946289 C-67.09010498 30.89194824 -66.37338623 29.83443359 -65.63494873 28.74487305 C-63.64481394 25.5686544 -62.67702937 22.46305639 -61.64276123 18.86889648 C-52.49218721 -7.52165113 -22.92164699 -0.89716433 0 0 Z " fill="#2B86FB" transform="translate(899.3966674804688,229.245849609375)"/>
<path d="M0 0 C36.3 0 72.6 0 110 0 C110 129.69 110 259.38 110 393 C59.84 393 9.68 393 -42 393 C-42.24198809 313.35006686 -42.24198809 313.35006686 -42.29296875 280.09375 C-42.30471579 272.48177005 -42.31683862 264.86979084 -42.32958984 257.2578125 C-42.33117234 256.30378973 -42.33275483 255.34976696 -42.33438528 254.3668344 C-42.36047321 238.96968574 -42.40777167 223.57267169 -42.46291678 208.17560281 C-42.51904817 192.37120948 -42.55235741 176.56688656 -42.56453097 160.76239765 C-42.57275911 151.01200565 -42.59873607 141.26199395 -42.6474988 131.51171903 C-42.67924208 124.82338733 -42.68879437 118.13525192 -42.68100826 111.44685037 C-42.67716941 107.58924317 -42.68300677 103.73229997 -42.71523285 99.87481117 C-42.749961 95.6871152 -42.73790068 91.50082647 -42.7215271 87.3130188 C-42.73900415 86.10093471 -42.7564812 84.88885062 -42.77448785 83.6400367 C-42.68850035 75.49845993 -40.75317426 70.55637987 -36 64 C-25.94422203 46.93511345 -16.30811359 29.64438196 -6.79833984 12.27124023 C-4.5456064 8.17344286 -2.27095853 4.08772536 0 0 Z " fill="#8D45F5" transform="translate(660,536)"/>
<path d="M0 0 C0.495 0.99 0.495 0.99 1 2 C-0.328125 4.64453125 -0.328125 4.64453125 -2.25 7.8125 C-2.87390625 8.85019531 -3.4978125 9.88789063 -4.140625 10.95703125 C-4.75421875 11.96121094 -5.3678125 12.96539062 -6 14 C-6.51046875 14.86109375 -7.0209375 15.7221875 -7.546875 16.609375 C-8.9631947 18.93944935 -10.46003631 21.18770929 -12 23.4375 C-14.30429973 26.86528915 -16.27056572 30.25289239 -18 34 C-18.66 34 -19.32 34 -20 34 C-20.40798828 35.07314453 -20.40798828 35.07314453 -20.82421875 36.16796875 C-24.01840797 43.86161389 -28.51204622 51.00407205 -33 58 C-29.94681807 58.89126633 -27.24644396 59.11694191 -24.07080078 59.09765625 C-22.56914619 59.09276184 -22.56914619 59.09276184 -21.03715515 59.08776855 C-19.93434708 59.07942993 -18.831539 59.07109131 -17.6953125 59.0625 C-15.230388 59.05385479 -12.76546282 59.04540197 -10.30053711 59.03710938 C-8.96019415 59.0310066 -7.61985194 59.02473686 -6.2795105 59.01831055 C0.9555553 58.98488687 8.19064525 58.97352488 15.42578125 58.96875 C16.20970938 58.96820114 16.9936375 58.96765228 17.80132103 58.96708679 C40.88961705 58.95850863 63.97599721 59.23845676 87.0625 59.5 C88.13116051 59.51202454 89.19982101 59.52404907 90.30086517 59.53643799 C103.53397767 59.68537602 116.76702203 59.83955884 130 60 C130 60.33 130 60.66 130 61 C74.89 61 19.78 61 -37 61 C-35.58546459 57.46366147 -34.38736198 54.79715629 -32.41796875 51.65625 C-31.64791504 50.42080444 -31.64791504 50.42080444 -30.86230469 49.16040039 C-30.30961914 48.28246826 -29.75693359 47.40453613 -29.1875 46.5 C-28.00896011 44.61337774 -26.83057926 42.72665612 -25.65234375 40.83984375 C-25.0476123 39.8741748 -24.44288086 38.90850586 -23.81982422 37.91357422 C-21.49682022 34.19439932 -19.19556336 30.46204093 -16.89453125 26.72924805 C-11.36045117 17.75526397 -5.74851762 8.83816016 0 0 Z " fill="#5D7BF9" transform="translate(803,308)"/>
<path d="M0 0 C0 0.33 0 0.66 0 1 C-6.87242312 2.04150458 -13.62251785 2.1708332 -20.56640625 2.20532227 C-21.80627792 2.21522186 -23.0461496 2.22512146 -24.32359314 2.23532104 C-27.70110556 2.26137716 -31.07859602 2.2832928 -34.45614624 2.30332303 C-37.99422659 2.32529915 -41.5322656 2.35263056 -45.0703125 2.37937927 C-51.7600996 2.42914987 -58.44990984 2.47414621 -65.1397419 2.51740164 C-72.76012411 2.56690825 -80.38046482 2.62177628 -88.00080681 2.67708123 C-103.66716612 2.79066106 -119.3335637 2.89755166 -135 3 C-135.91461729 5.74385188 -136.12208623 7.32063493 -136.11352539 10.14128113 C-136.1134549 10.9836734 -136.1133844 11.82606567 -136.11331177 12.69398499 C-136.10814545 13.61505539 -136.10297913 14.53612579 -136.09765625 15.48510742 C-136.09619598 16.45780579 -136.09473572 17.43050415 -136.0932312 18.43267822 C-136.08942241 20.54760939 -136.08330291 22.66253735 -136.07516479 24.77745628 C-136.06241505 28.12779248 -136.05588852 31.47808911 -136.05102539 34.82844543 C-136.03764269 43.15424633 -136.01349943 51.4800099 -135.98962402 59.80578613 C-135.96986662 66.8329936 -135.954233 73.86018686 -135.94406128 80.88741493 C-135.93759484 84.18214583 -135.92508345 87.47681837 -135.91235352 90.77153015 C-135.9087187 92.80365956 -135.90536726 94.83578951 -135.90234375 96.86791992 C-135.89459427 98.2343438 -135.89459427 98.2343438 -135.88668823 99.62837219 C-135.88625881 104.84567054 -136.24251653 109.83646115 -137 115 C-136.34 115.33 -135.68 115.66 -135 116 C-135.16242187 116.55429687 -135.32484375 117.10859375 -135.4921875 117.6796875 C-136.04928475 120.22519339 -136.13277261 122.52117688 -136.125 125.125 C-136.12757813 125.99382812 -136.13015625 126.86265625 -136.1328125 127.7578125 C-136.14537934 130.03719449 -136.14537934 130.03719449 -135 132 C-135.99 131.67 -136.98 131.34 -138 131 C-138 88.1 -138 45.2 -138 1 C-106.3509375 0.7525 -106.3509375 0.7525 -74.0625 0.5 C-67.409729 0.44779297 -60.75695801 0.39558594 -53.90258789 0.34179688 C-45.75476074 0.27832031 -45.75476074 0.27832031 -41.93577576 0.24865723 C-39.27867017 0.22795264 -36.62156569 0.20713643 -33.96446228 0.18615723 C-29.9308196 0.15431728 -25.89717274 0.12303895 -21.86352539 0.09179688 C-20.68738961 0.08242851 -19.51125383 0.07306015 -18.29947758 0.0634079 C-12.19941965 0.01665574 -6.10023687 -0.00946933 0 0 Z " fill="#798DF8" transform="translate(941,535)"/>
<path d="M0 0 C0.33 1.32 0.66 2.64 1 4 C-52.13 4 -105.26 4 -160 4 C-160 3.67 -160 3.34 -160 3 C-158.96573883 2.9845388 -158.96573883 2.9845388 -157.9105835 2.96876526 C-151.26756096 2.86893655 -144.62458891 2.76623772 -137.98165512 2.66066074 C-134.57014733 2.60653321 -131.15863146 2.55334815 -127.74707031 2.50268555 C-113.59477993 2.29055832 -99.45261555 2.01835924 -85.30859375 1.47265625 C-73.97120688 1.03699684 -62.65754205 0.84284087 -51.3125 0.875 C-50.45065094 0.87522156 -49.58880188 0.87544312 -48.70083618 0.87567139 C-36.83379582 0.87921831 -25.00253137 1.05857798 -13.15551758 1.81982422 C-12.25212646 1.87154785 -11.34873535 1.92327148 -10.41796875 1.9765625 C-9.65250732 2.02893066 -8.8870459 2.08129883 -8.09838867 2.13525391 C-5.0323813 1.93763109 -3.02818851 0 0 0 Z " fill="#209DFB" transform="translate(1144,925)"/>
<path d="M0 0 C24.72107352 -0.09334982 49.44212071 -0.1639333 74.16333485 -0.20724869 C85.64125769 -0.22789336 97.11907117 -0.25605034 108.59692383 -0.30175781 C118.59844095 -0.34156726 128.59987889 -0.36741894 138.60147303 -0.37635398 C143.89960987 -0.38157872 149.19752012 -0.39389824 154.49558449 -0.42292023 C159.4786086 -0.44999626 164.46131201 -0.45846086 169.44440269 -0.45243073 C171.27663794 -0.45353447 173.1088835 -0.46153472 174.9410553 -0.4768219 C177.43646935 -0.49662804 179.93066129 -0.49197419 182.42610168 -0.48101807 C183.15664334 -0.49266943 183.88718499 -0.5043208 184.63986427 -0.51632524 C187.91789737 -0.47723243 189.56401767 -0.42089149 191.97336864 1.90506363 C193 4 193 4 193 6 C192.34 6 191.68 6 191 6 C190.01 3.525 190.01 3.525 189 1 C187.61402304 1.00911329 187.61402304 1.00911329 186.20004654 1.01841068 C163.73339727 1.16590281 141.26671686 1.30752389 118.79999161 1.4429636 C107.93532641 1.50859717 97.07067942 1.57614912 86.20605469 1.64819336 C76.73815295 1.71097097 67.27023683 1.77017354 57.80228591 1.82505554 C52.78756454 1.8542495 47.77286888 1.88525234 42.75818634 1.92053413 C38.04037308 1.95367082 33.32255544 1.98203538 28.60469055 2.00670624 C26.87124785 2.01661821 25.1378142 2.0282885 23.40439606 2.04183006 C21.04110091 2.06003168 18.67785488 2.07195623 16.31451416 2.08229065 C15.62579483 2.08909444 14.93707551 2.09589823 14.2274859 2.10290819 C10.99853758 2.11049701 8.08810798 1.99049059 5 1 C4.67 2.32 4.34 3.64 4 5 C2.64567325 3.68799596 1.31266518 2.35368596 0 1 C0 0.67 0 0.34 0 0 Z " fill="#D932EB" transform="translate(128,231)"/>
<path d="M0 0 C0.495 0.99 0.495 0.99 1 2 C-0.328125 4.64453125 -0.328125 4.64453125 -2.25 7.8125 C-2.87390625 8.85019531 -3.4978125 9.88789063 -4.140625 10.95703125 C-4.75421875 11.96121094 -5.3678125 12.96539062 -6 14 C-6.51046875 14.86109375 -7.0209375 15.7221875 -7.546875 16.609375 C-8.9631947 18.93944935 -10.46003631 21.18770929 -12 23.4375 C-14.30429973 26.86528915 -16.27056572 30.25289239 -18 34 C-18.66 34 -19.32 34 -20 34 C-20.40798828 35.07314453 -20.40798828 35.07314453 -20.82421875 36.16796875 C-24.01840797 43.86161389 -28.51204622 51.00407205 -33 58 C-32.34 58.66 -31.68 59.32 -31 60 C-32.65 60 -34.3 60 -36 60 C-34.71121547 56.59408781 -33.23480777 53.50078175 -31.3828125 50.3671875 C-30.86428711 49.48804688 -30.34576172 48.60890625 -29.81152344 47.703125 C-29.2549707 46.76984375 -28.69841797 45.8365625 -28.125 44.875 C-27.54782227 43.90304687 -26.97064453 42.93109375 -26.37597656 41.9296875 C-20.75536592 32.50987523 -14.92344617 23.23153324 -9 14 C-8.53980469 13.28150879 -8.07960938 12.56301758 -7.60546875 11.82275391 C-5.07762384 7.87709397 -2.54272457 3.93608627 0 0 Z " fill="#6367F9" transform="translate(803,308)"/>
<path d="M0 0 C3.74299539 1.24766513 4.11670758 2.3646007 6.125 5.6875 C6.73601562 6.68136719 7.34703125 7.67523438 7.9765625 8.69921875 C8.64429688 9.78847656 9.31203125 10.87773437 10 12 C11.48785668 14.34120587 12.99452547 16.67009893 14.5 19 C15.2578854 20.18354707 16.0156984 21.36714051 16.7734375 22.55078125 C18.21417763 24.79479366 19.67949503 27.01433644 21.1640625 29.23046875 C21.81117188 30.20628906 22.45828125 31.18210937 23.125 32.1875 C23.70507812 33.04730469 24.28515625 33.90710938 24.8828125 34.79296875 C25.25148438 35.52128906 25.62015625 36.24960937 26 37 C25.67 37.99 25.34 38.98 25 40 C24.63350342 39.42258057 24.26700684 38.84516113 23.8894043 38.25024414 C22.15618865 35.52051736 20.42198785 32.79141859 18.6875 30.0625 C18.05827637 29.0722583 17.42905273 28.0820166 16.78076172 27.06176758 C12.29912677 20.01782378 7.7808408 12.9989526 3.2019043 6.01782227 C0 1.10783101 0 1.10783101 0 0 Z " fill="#C73BEB" transform="translate(286,472)"/>
<path d="M0 0 C4.41617649 1.42946762 7.08458934 3.6403136 10.4375 6.8125 C14.20897514 10.33424233 17.99282429 13.75093861 22 17 C21.34 17.66 20.68 18.32 20 19 C19.62230469 18.59910156 19.24460937 18.19820313 18.85546875 17.78515625 C14.329609 13.11090766 9.46160185 9.04418794 4.35546875 5.015625 C2 3 2 3 0 0 Z " fill="#26A1FC" transform="translate(1053,270)"/>
<path d="M0 0 C0.33 0.66 0.66 1.32 1 2 C-3.25984984 8.28119035 -8.18671647 13.14267865 -14 18 C-14.99 17.34 -15.98 16.68 -17 16 C-16.35933594 15.5153125 -15.71867188 15.030625 -15.05859375 14.53125 C-9.37842298 10.12932928 -4.50102614 5.60392659 0 0 Z " fill="#388DFB" transform="translate(982,508)"/>
<path d="M0 0 C3.85674376 1.4756237 5.21823735 3.47006893 7.25 7 C7.77078125 7.886875 8.2915625 8.77375 8.828125 9.6875 C10 12 10 12 10 14 C10.66 14 11.32 14 12 14 C13.65 16.97 15.3 19.94 17 23 C16.34 23.33 15.68 23.66 15 24 C12.68592841 20.37600098 10.3740098 16.75063345 8.0625 13.125 C7.40314453 12.09246094 6.74378906 11.05992187 6.06445312 9.99609375 C5.43603516 9.00996094 4.80761719 8.02382813 4.16015625 7.0078125 C3.57886963 6.09660645 2.99758301 5.18540039 2.39868164 4.24658203 C1 2 1 2 0 0 Z " fill="#D03AEB" transform="translate(244,408)"/>
<path d="M0 0 C0.66 0.33 1.32 0.66 2 1 C0.0513635 4.98398777 -1.91050619 8.96131058 -3.875 12.9375 C-4.43058594 14.07380859 -4.98617188 15.21011719 -5.55859375 16.38085938 C-6.09355469 17.46044922 -6.62851562 18.54003906 -7.1796875 19.65234375 C-7.67194824 20.65257568 -8.16420898 21.65280762 -8.67138672 22.68334961 C-10 25 -10 25 -12 26 C-11.34 23.36 -10.68 20.72 -10 18 C-9.34 18 -8.68 18 -8 18 C-7.731875 17.175 -7.46375 16.35 -7.1875 15.5 C-5.87475078 11.63084439 -4.44898716 7.82005706 -3 4 C-2.34 4 -1.68 4 -1 4 C-0.67 2.68 -0.34 1.36 0 0 Z " fill="#A03FF1" transform="translate(492,782)"/>
<path d="M0 0 C2.74277578 3.19990508 4.6302836 6.00499382 6 10 C5 11 5 11 2.4375 11.0625 C1.633125 11.041875 0.82875 11.02125 0 11 C-1.28571429 3.57142857 -1.28571429 3.57142857 0 0 Z " fill="#F1E6F6" transform="translate(359,587)"/>
<path d="M0 0 C0.99 0.495 0.99 0.495 2 1 C2.88671875 4.01953125 2.88671875 4.01953125 3.6875 7.8125 C3.95949219 9.05644531 4.23148438 10.30039062 4.51171875 11.58203125 C4.94068161 14.58477125 5.04478192 16.2162522 4 19 C0.33458746 13.5018812 -0.34357529 6.52793043 0 0 Z " fill="#2AADFC" transform="translate(1130,391)"/>
<path d="M0 0 C0.71484375 1.609375 0.71484375 1.609375 1 4 C-0.43359375 7.015625 -0.43359375 7.015625 -2.4375 10.25 C-3.09621094 11.32765625 -3.75492187 12.4053125 -4.43359375 13.515625 C-4.95050781 14.33546875 -5.46742188 15.1553125 -6 16 C-6.71484375 14.390625 -6.71484375 14.390625 -7 12 C-5.56640625 8.984375 -5.56640625 8.984375 -3.5625 5.75 C-2.90378906 4.67234375 -2.24507813 3.5946875 -1.56640625 2.484375 C-1.04949219 1.66453125 -0.53257812 0.8446875 0 0 Z " fill="#C83CF2" transform="translate(271,893)"/>
<path d="M0 0 C0.86626039 2.42552909 1.17413108 3.57136965 0.1875 6 C-0.204375 6.66 -0.59625 7.32 -1 8 C-1.37125 8.7425 -1.7425 9.485 -2.125 10.25 C-2.41375 10.8275 -2.7025 11.405 -3 12 C-3.99 12 -4.98 12 -6 12 C-4.43358249 7.69235185 -2.31663844 3.93828536 0 0 Z " fill="#E0F0F9" transform="translate(1106,563)"/>
<path d="M0 0 C4.33034194 3.84919283 6.6560756 7.72289646 9 13 C8.01 13.495 8.01 13.495 7 14 C5.82508418 12.23462904 4.66031316 10.46250287 3.5 8.6875 C2.8503125 7.70136719 2.200625 6.71523438 1.53125 5.69921875 C0 3 0 3 0 0 Z " fill="#CB31EB" transform="translate(276,455)"/>
<path d="M0 0 C4.8274799 1.41292095 8.7162359 3.42974154 13 6 C13 6.66 13 7.32 13 8 C8.50202887 6.31326082 4.27113698 4.18326108 0 2 C0 1.34 0 0.68 0 0 Z " fill="#2999FC" transform="translate(1021,250)"/>
<path d="M0 0 C0.66 0 1.32 0 2 0 C0.35821735 4.77609498 -2.26546702 8.79382904 -5 13 C-5.33 12.34 -5.66 11.68 -6 11 C-5.67 10.01 -5.34 9.02 -5 8 C-4.34 8 -3.68 8 -3 8 C-2.87625 7.4225 -2.7525 6.845 -2.625 6.25 C-1.99351176 3.97664233 -1.11141809 2.0746471 0 0 Z " fill="#9C4EF2" transform="translate(679,446)"/>
<path d="M0 0 C2.9555377 2.75170751 5.11563315 5.41970299 7 9 C7 9.66 7 10.32 7 11 C3.66428571 9.88809524 3.41582921 9.53679327 1.8125 6.625 C1.46832031 6.01914063 1.12414062 5.41328125 0.76953125 4.7890625 C0 3 0 3 0 0 Z " fill="#D43FF2" transform="translate(325,244)"/>
<path d="M0 0 C0.66 0 1.32 0 2 0 C1.38545304 3.99455527 -0.70646737 6.74466336 -3 10 C-3.66 9.67 -4.32 9.34 -5 9 C-3.35 6.03 -1.7 3.06 0 0 Z " fill="#C634F0" transform="translate(257,917)"/>
<path d="M0 0 C0.66 0.33 1.32 0.66 2 1 C0.8141763 4.37503669 -0.27573689 6.64722731 -3 9 C-2.5020163 5.26512223 -2.12508244 3.18762365 0 0 Z " fill="#FAE6FD" transform="translate(254,918)"/>
<path d="M0 0 C-1.7578125 0.9765625 -3.515625 1.953125 -5.2734375 2.9296875 C-7.1612614 4.00897274 -7.1612614 4.00897274 -9 6 C-9.33 4.68 -9.66 3.36 -10 2 C-8.71211992 1.46987262 -7.41953322 0.9511671 -6.125 0.4375 C-5.40570312 0.14746094 -4.68640625 -0.14257812 -3.9453125 -0.44140625 C-2 -1 -2 -1 0 0 Z " fill="#D6EBFC" transform="translate(986,670)"/>
<path d="M0 0 C1.98 0.99 1.98 0.99 4 2 C4 2.66 4 3.32 4 4 C4.66 4 5.32 4 6 4 C6.66 5.65 7.32 7.3 8 9 C3.33845958 7.50164772 2.13389249 4.11536409 0 0 Z " fill="#D133E9" transform="translate(229,385)"/>
<path d="M0 0 C0.66 0.99 1.32 1.98 2 3 C1.01 3.33 0.02 3.66 -1 4 C-1.33 5.65 -1.66 7.3 -2 9 C-2.99 9.33 -3.98 9.66 -5 10 C-3.66511872 6.40608886 -2.03977277 3.24509304 0 0 Z " fill="#C04DF1" transform="translate(333,787)"/>
<path d="M0 0 C0.66 0 1.32 0 2 0 C0.83857315 4.35535069 -0.07699505 6.64619703 -4 9 C-2.94124926 5.59687262 -1.99097846 2.98646769 0 0 Z " fill="#9F4BF4" transform="translate(653,549)"/>
<path d="M0 0 C1 3 1 3 -0.25 6.125 C-2 9 -2 9 -5 10 C-3.66511872 6.40608886 -2.03977277 3.24509304 0 0 Z " fill="#6F74FA" transform="translate(787,333)"/>
<path d="M0 0 C0.66 0.33 1.32 0.66 2 1 C1.1875 3.9375 1.1875 3.9375 0 7 C-0.99 7.33 -1.98 7.66 -3 8 C-1.125 2.25 -1.125 2.25 0 0 Z " fill="#C6E7FA" transform="translate(1113,549)"/>
</svg>
